<?xml version="1.0" encoding="UTF-8" standalone="no"?>
<svg
   xmlns:dc="http://purl.org/dc/elements/1.1/"
   xmlns:cc="http://creativecommons.org/ns#"
   xmlns:rdf="http://www.w3.org/1999/02/22-rdf-syntax-ns#"
   xmlns:svg="http://www.w3.org/2000/svg"
   xmlns="http://www.w3.org/2000/svg"
   xmlns:sodipodi="http://sodipodi.sourceforge.net/DTD/sodipodi-0.dtd"
   xmlns:inkscape="http://www.inkscape.org/namespaces/inkscape"
   width="128px"
   height="128px"
   viewBox="0 0 128 128"
   version="1.1"
   id="svg15"
   sodipodi:docname="com.github.Alcaro.Flips.svg"
   inkscape:version="0.92.4 5da689c313, 2019-01-14">
  <metadata
     id="metadata21">
    <rdf:RDF>
      <cc:Work
         rdf:about="">
        <dc:format>image/svg+xml</dc:format>
        <dc:type
           rdf:resource="http://purl.org/dc/dcmitype/StillImage" />
      </cc:Work>
    </rdf:RDF>
  </metadata>
  <defs
     id="defs19" />
  <sodipodi:namedview
     pagecolor="#ffffff"
     bordercolor="#666666"
     borderopacity="1"
     objecttolerance="10"
     gridtolerance="10"
     guidetolerance="10"
     inkscape:pageopacity="0"
     inkscape:pageshadow="2"
     inkscape:window-width="1280"
     inkscape:window-height="1376"
     id="namedview17"
     showgrid="false"
     inkscape:zoom="3.3713595"
     inkscape:cx="64.165618"
     inkscape:cy="96.881391"
     inkscape:window-x="1280"
     inkscape:window-y="27"
     inkscape:window-maximized="0"
     inkscape:current-layer="svg15" />
  <g
     transform="translate(0,-172)"
     style="display:inline;opacity:1;enable-background:new"
     id="g1299">
    <g
       id="g1504">
      <path
         style="opacity:1;fill:#f5c211;fill-opacity:1;stroke:none;stroke-width:3.77952766;stroke-miterlimit:4;stroke-dasharray:none;stroke-opacity:1"
         d="m 62,268 h 4 v 26 l -2,2 -2,-2 z"
         id="rect1437"
         inkscape:connector-curvature="0"
         sodipodi:nodetypes="cccccc" />
      <path
         sodipodi:nodetypes="ccccc"
         inkscape:connector-curvature="0"
         id="path1500"
         d="m 62,268 h 4 v 8 h -4 z"
         style="opacity:1;fill:#e5a50a;fill-opacity:1;stroke:none;stroke-width:3.77952766;stroke-miterlimit:4;stroke-dasharray:none;stroke-opacity:1" />
    </g>
    <g
       transform="matrix(-1,0,0,1,128,0)"
       id="g1498">
      <path
         sodipodi:nodetypes="cccc"
         style="fill:#e5a50a;stroke:none;stroke-width:1px;stroke-linecap:butt;stroke-linejoin:miter;stroke-opacity:1"
         d="m 64,296 29,-8 -7,-9 z"
         id="path1484"
         inkscape:connector-curvature="0" />
      <path
         inkscape:connector-curvature="0"
         id="path1486"
         d="m 108,262 -15,26 -7,-9 z"
         style="fill:#f5c211;stroke:none;stroke-width:1px;stroke-linecap:butt;stroke-linejoin:miter;stroke-opacity:1"
         sodipodi:nodetypes="cccc" />
      <path
         inkscape:connector-curvature="0"
         id="path1488"
         d="m 64,296 15,-26 7,9 z"
         style="fill:#f6d32d;stroke:none;stroke-width:1px;stroke-linecap:butt;stroke-linejoin:miter;stroke-opacity:1"
         sodipodi:nodetypes="cccc" />
      <path
         sodipodi:nodetypes="cccc"
         style="fill:#f8e45c;stroke:none;stroke-width:1px;stroke-linecap:butt;stroke-linejoin:miter;stroke-opacity:1"
         d="m 108,262 -29,8 7,9 z"
         id="path1490"
         inkscape:connector-curvature="0" />
      <path
         inkscape:connector-curvature="0"
         id="path1492"
         d="M 108,262 84.25,276.75 86,279 Z"
         style="fill:#f9f06b;stroke:none;stroke-width:1px;stroke-linecap:butt;stroke-linejoin:miter;stroke-opacity:1"
         sodipodi:nodetypes="cccc" />
      <path
         sodipodi:nodetypes="cccc"
         style="fill:#f6d32d;stroke:none;stroke-width:1px;stroke-linecap:butt;stroke-linejoin:miter;stroke-opacity:1"
         d="M 108,262 87.75,281.25 86,279 Z"
         id="path1494"
         inkscape:connector-curvature="0" />
      <path
         sodipodi:nodetypes="cccc"
         style="fill:#f8e45c;stroke:none;stroke-width:1px;stroke-linecap:butt;stroke-linejoin:miter;stroke-opacity:1"
         d="M 64,296 84.25,276.75 86,279 Z"
         id="path1496"
         inkscape:connector-curvature="0" />
    </g>
    <g
       id="g1482">
      <path
         inkscape:connector-curvature="0"
         id="path1388"
         d="m 64,296 29,-8 -7,-9 z"
         style="fill:#e5a50a;stroke:none;stroke-width:1px;stroke-linecap:butt;stroke-linejoin:miter;stroke-opacity:1"
         sodipodi:nodetypes="cccc" />
      <path
         sodipodi:nodetypes="cccc"
         style="fill:#f5c211;stroke:none;stroke-width:1px;stroke-linecap:butt;stroke-linejoin:miter;stroke-opacity:1"
         d="m 108,262 -15,26 -7,-9 z"
         id="path1390"
         inkscape:connector-curvature="0" />
      <path
         sodipodi:nodetypes="cccc"
         style="fill:#f6d32d;stroke:none;stroke-width:1px;stroke-linecap:butt;stroke-linejoin:miter;stroke-opacity:1"
         d="m 64,296 15,-26 7,9 z"
         id="path1392"
         inkscape:connector-curvature="0" />
      <path
         inkscape:connector-curvature="0"
         id="path1394"
         d="m 108,262 -29,8 7,9 z"
         style="fill:#f8e45c;stroke:none;stroke-width:1px;stroke-linecap:butt;stroke-linejoin:miter;stroke-opacity:1"
         sodipodi:nodetypes="cccc" />
      <path
         sodipodi:nodetypes="cccc"
         style="fill:#f9f06b;stroke:none;stroke-width:1px;stroke-linecap:butt;stroke-linejoin:miter;stroke-opacity:1"
         d="M 108,262 84.25,276.75 86,279 Z"
         id="path1432"
         inkscape:connector-curvature="0" />
      <path
         inkscape:connector-curvature="0"
         id="path1434"
         d="M 108,262 87.75,281.25 86,279 Z"
         style="fill:#f6d32d;stroke:none;stroke-width:1px;stroke-linecap:butt;stroke-linejoin:miter;stroke-opacity:1"
         sodipodi:nodetypes="cccc" />
      <path
         inkscape:connector-curvature="0"
         id="path1440"
         d="M 64,296 84.25,276.75 86,279 Z"
         style="fill:#f8e45c;stroke:none;stroke-width:1px;stroke-linecap:butt;stroke-linejoin:miter;stroke-opacity:1"
         sodipodi:nodetypes="cccc" />
    </g>
    <g
       transform="matrix(6,0,0,6,19,176)"
       id="g1445"
       style="fill:#c01c28;fill-opacity:1">
      <path
         sodipodi:nodetypes="ccsccssc"
         id="path1443"
         d="M 3,0 C 4,1 5.996094,4.769531 6,6.5 6,9.261719 3.761719,10 1,10 H 0 c 0.78125,3.695312 3.222656,5.996094 7,6 4.417969,0 8,-3.582031 8,-8 C 15,3.582031 11.417969,0 7,0 Z"
         style="fill:#c01c28;fill-opacity:1;fill-rule:nonzero;stroke:none"
         inkscape:connector-curvature="0" />
    </g>
    <g
       style="fill:#ed333b;fill-opacity:1"
       id="g486"
       transform="matrix(6,0,0,6,19,176)">
      <path
         inkscape:connector-curvature="0"
         style="fill:#ed333b;fill-opacity:1;fill-rule:nonzero;stroke:none"
         d="M 3,0 C 4,1 5.996094,4.769531 6,6.5 6,9.261719 3.761719,10 1,10 H 0 c 1.3333333,3.333333 3.222656,4.996094 7,5 4.417969,0 7.333333,-2.833333 8,-7 C 15,3.582031 11.417969,0 7,0 Z"
         id="path484"
         sodipodi:nodetypes="ccscccsc" />
    </g>
    <g
       transform="matrix(6,0,0,6,19,176)"
       id="g494"
       style="fill:#241f31;fill-opacity:1">
      <path
         sodipodi:nodetypes="ccccccccccccccccccc"
         id="path492"
         d="M 8,5 H 9 V 8 H 8 Z m 2,0 h 1 v 3 h -1 z m 1.601562,3.699219 0.796876,0.601562 C 10.828125,11.394531 9.175781,12.011719 8,12 6.742188,11.988281 5.933594,11.023438 6,10 V 9 h 1 v 1 c -0.027344,0.421875 0.257812,0.992188 1,1 0.824219,0.0078 2.171875,-0.394531 3.601562,-2.300781 z"
         style="fill:#241f31;fill-opacity:1;fill-rule:nonzero;stroke:none"
         inkscape:connector-curvature="0" />
    </g>
  </g>
</svg>
