<?xml version="1.0" encoding="UTF-8" standalone="no"?>
<svg
   xmlns:dc="http://purl.org/dc/elements/1.1/"
   xmlns:cc="http://creativecommons.org/ns#"
   xmlns:rdf="http://www.w3.org/1999/02/22-rdf-syntax-ns#"
   xmlns:svg="http://www.w3.org/2000/svg"
   xmlns="http://www.w3.org/2000/svg"
   xmlns:sodipodi="http://sodipodi.sourceforge.net/DTD/sodipodi-0.dtd"
   xmlns:inkscape="http://www.inkscape.org/namespaces/inkscape"
   width="16px"
   height="16px"
   viewBox="0 0 16 16"
   version="1.1"
   id="svg5"
   sodipodi:docname="com.github.Alcaro.Flips-symbolic.svg"
   inkscape:version="0.92.4 5da689c313, 2019-01-14">
  <metadata
     id="metadata11">
    <rdf:RDF>
      <cc:Work
         rdf:about="">
        <dc:format>image/svg+xml</dc:format>
        <dc:type
           rdf:resource="http://purl.org/dc/dcmitype/StillImage" />
      </cc:Work>
    </rdf:RDF>
  </metadata>
  <defs
     id="defs9" />
  <sodipodi:namedview
     pagecolor="#ffffff"
     bordercolor="#666666"
     borderopacity="1"
     objecttolerance="10"
     gridtolerance="10"
     guidetolerance="10"
     inkscape:pageopacity="0"
     inkscape:pageshadow="2"
     inkscape:window-width="2560"
     inkscape:window-height="1376"
     id="namedview7"
     showgrid="false"
     inkscape:zoom="64"
     inkscape:cx="6.9695503"
     inkscape:cy="5.0531077"
     inkscape:window-x="0"
     inkscape:window-y="27"
     inkscape:window-maximized="1"
     inkscape:current-layer="svg5" />
  <path
     style="display:inline;opacity:1;fill:#000000;fill-opacity:1;fill-rule:nonzero;stroke:none;stroke-width:0.87082338;enable-background:new"
     d="M 3.5996094,0 C 4.4662794,0.8750003 6.1958288,4.17334 6.1992188,5.6875 6.1992188,8.104 4.39349,9 2,9 H 1 c 0.1570546,0.7500154 0.3963513,1.411808 0.6992188,2 H 5 l 3,3 3,-3 h 1.724609 C 13.523593,9.8664327 14,8.4901744 14,7 14,3.13428 10.82891,0 7,0 Z M 8,4 H 9 V 7 H 8 Z m 2,0 h 1 v 3 h -1 z m 1.601562,3.6992188 0.796876,0.6015624 C 10.828117,10.394531 9.17578,11.01172 8,11 6.74219,10.9883 5.93359,10.02344 6,9 V 8 h 1 v 1 c -0.0273,0.42187 0.25781,0.99219 1,1 0.82422,0.008 2.171874,-0.3945312 3.601562,-2.3007812 z"
     id="path1286"
     inkscape:connector-curvature="0"
     sodipodi:nodetypes="ccsccccccsscccccccccccccccccccc" />
  <path
     sodipodi:nodetypes="ccccc"
     inkscape:connector-curvature="0"
     id="path1288"
     d="m 8,16 h 4.0003 L 16,12 h -4 z"
     style="fill:#000000;fill-opacity:1;stroke:none;stroke-width:1px;stroke-linecap:butt;stroke-linejoin:miter;stroke-opacity:1" />
  <path
     style="fill:#000000;fill-opacity:1;stroke:none;stroke-width:1px;stroke-linecap:butt;stroke-linejoin:miter;stroke-opacity:1"
     d="M 8,16 H 3.9997 L 0,12 h 4 z"
     id="path1308"
     inkscape:connector-curvature="0"
     sodipodi:nodetypes="ccccc" />
</svg>
